<svg xmlns="http://www.w3.org/2000/svg" xmlns:xlink="http://www.w3.org/1999/xlink" width="23.789" height="5.329" viewBox="0 0 23.789 5.329">
  <defs>
    <linearGradient id="linear-gradient" x1="-0.161" y1="9.312" x2="-0.12" y2="9.022" gradientUnits="objectBoundingBox">
      <stop offset="0" stop-color="#396"/>
      <stop offset="1" stop-color="#004f32"/>
    </linearGradient>
  </defs>
  <g id="aston-martin-2" transform="translate(-0.031)">
    <path id="Path_40" data-name="Path 40" d="M11.925,4.378a.119.119,0,0,0-.076.033l-.772.736a.715.715,0,0,1-.7.145l-3.292-.9C6.456,4.2,6.331,4,6.236,3.753a.339.339,0,0,0-.192-.2L2.022,2.377A.442.442,0,0,1,1.7,2.155l-.223-.389a.2.2,0,0,0-.143-.1.507.507,0,0,1-.43-.283l-.18-.314A.19.19,0,0,0,.588.96.348.348,0,0,1,.261.789L.086.493A.332.332,0,0,1,.069.153.346.346,0,0,1,.369,0H9.987a.884.884,0,0,1,.655.245.916.916,0,0,1,.24.452s.011.043.095.043h1.9c.082,0,.093-.039.095-.043A.921.921,0,0,1,13.21.245.879.879,0,0,1,13.863,0h9.619a.348.348,0,0,1,.3.151.332.332,0,0,1-.017.34l-.177.294a.343.343,0,0,1-.327.171.2.2,0,0,0-.139.106l-.18.314a.5.5,0,0,1-.431.283.191.191,0,0,0-.143.1l-.221.391a.446.446,0,0,1-.32.221L17.8,3.556a.332.332,0,0,0-.192.2c-.1.249-.221.452-.848.642l-3.292.9a.72.72,0,0,1-.7-.145L12,4.41a.109.109,0,0,0-.073-.032Z" transform="translate(0 0)"/>
    <path id="Path_41" data-name="Path 41" d="M22.524,10.158a.731.731,0,0,1,.19-.363.718.718,0,0,1,.528-.193h4.419a.848.848,0,0,0-.236.268c-.05.1-.115.208-.192.333H22.508A.311.311,0,0,0,22.524,10.158Zm10.461-.329-.173.286c-.032.054-.052.078-.184.086H27.4c.058-.1.11-.19.151-.268a.663.663,0,0,1,.515-.333h4.793A.168.168,0,0,1,33,9.665a.1.1,0,0,1,.015.052A.224.224,0,0,1,32.986,9.829Zm-.64.567-.182.32a.3.3,0,0,1-.186.164,1.333,1.333,0,0,1-.376,0l-4.45-.294c.058-.086.112-.167.16-.245h5.073A.507.507,0,0,0,32.346,10.4Zm-.757.707s-.175.309-.212.374c-.009.013-.06.067-.221.045l-4.264-.571c.058-.076.113-.153.166-.225l4.53.3c.007,0,.026,0,.054.006a.258.258,0,0,0-.052.071Zm-1.467.829a1.7,1.7,0,0,1-.584-.028l-2.931-.6c.063-.076.126-.151.184-.225l4.283.575Zm-1.452.426a.972.972,0,0,1-.478-.035l0,0-1.962-.6c.1-.1.19-.2.277-.3l3.007.617c.007,0,.069.013.154.026Zm-1.532.45a.722.722,0,0,1-.413-.076l-1.064-.5c.156-.128.309-.264.454-.405l2.035.629s.041.013.1.026l-1.108.325Zm-.312.307c-.06.153-.121.309-.537.465a.5.5,0,0,1-.379-.1l-.995-.712a7.047,7.047,0,0,0,.629-.437l1.123.526a1.049,1.049,0,0,0,.262.087A.508.508,0,0,0,26.824,13.115Zm-1.573.759-.156.043c-.132.032-.292-.1-.344-.153,0,0-.253-.262-.578-.6a6.281,6.281,0,0,0,.608-.316l1.041.746a.7.7,0,0,0,.151.086Zm-1.376.376c-.11.017-.238-.164-.275-.231l-.314-.532a6.018,6.018,0,0,0,.751-.268l.612.64a.8.8,0,0,0,.171.132Zm-1.043.285a.25.25,0,0,1-.19-.022.421.421,0,0,1-.156-.242l-.16-.578a6.916,6.916,0,0,0,.822-.166l.333.564a.8.8,0,0,0,.18.219Zm-.677-.21-.6-.569c.21-.007.418-.022.627-.046l.164.591a.606.606,0,0,0,.128.253C22.352,14.517,22.314,14.48,22.154,14.324Zm-.781-.7v-1.8h.288l.485,1.754A7.511,7.511,0,0,1,21.373,13.621Zm-.913-.048.485-1.754h.288v1.8A7.167,7.167,0,0,1,20.46,13.572Zm-.126.867a.432.432,0,0,1-.2.113.617.617,0,0,0,.128-.253l.164-.59c.206.024.415.039.627.046C20.88,13.917,20.334,14.439,20.334,14.439Zm-.21-.171a.418.418,0,0,1-.156.244.242.242,0,0,1-.19.022l-.828-.225a.833.833,0,0,0,.18-.221l.331-.56a6.626,6.626,0,0,0,.822.164Zm-1.389-.019-.947-.259a.8.8,0,0,0,.171-.132l.612-.64a6.68,6.68,0,0,0,.751.268l-.312.53C18.972,14.088,18.844,14.268,18.734,14.249Zm-1.222-.333-.88-.24a.882.882,0,0,0,.153-.087l1.04-.744a6.758,6.758,0,0,0,.61.316l-.578.6C17.806,13.818,17.644,13.948,17.512,13.917Zm-1.19-.337c-.415-.156-.478-.312-.537-.465a.556.556,0,0,0-.1-.171,1.106,1.106,0,0,0,.264-.089l1.121-.524a6.655,6.655,0,0,0,.627.437l-.993.71A.488.488,0,0,1,16.322,13.58Zm-.852-.772-1.11-.325c.033-.007.067-.017.1-.026l2.033-.627c.141.138.292.273.454.405l-1.062.5A.722.722,0,0,1,15.47,12.808Zm-1.531-.45-1-.292c.087-.013.149-.024.154-.026l3.007-.617c.087.1.179.2.277.3l-1.964.6a1.022,1.022,0,0,1-.478.035Zm-1.452-.426-.954-.281,4.283-.575q.086.112.184.223l-2.931.6A1.729,1.729,0,0,1,12.487,11.932Zm-1.034-.411c-.162.022-.212-.032-.221-.045l-.214-.376a.317.317,0,0,0-.05-.073l4.584-.305c.052.073.108.149.166.225l-4.264.573Zm-.822-.64a.3.3,0,0,1-.186-.164c-.074-.126-.173-.316-.221-.378H15.3c.048.078.1.16.16.245l-4.452.3A1.473,1.473,0,0,1,10.631,10.881ZM9.98,10.2c-.123-.009-.149-.024-.186-.087,0,0-.16-.266-.173-.286a.218.218,0,0,1-.033-.11c0-.065.046-.115.164-.117h4.795a.676.676,0,0,1,.515.333q.064.117.151.268Zm9.384-.6a.715.715,0,0,1,.528.193.741.741,0,0,1,.192.363s.007.026.015.045H15.376c-.065-.11-.13-.221-.192-.333a.932.932,0,0,0-.236-.268Zm6.842.922V10.34h.939c-.048.074-.1.154-.156.234Zm0,.335v-.19l.686.045c-.05.071-.1.141-.162.216Zm0,.361V11l.424.058c-.058.071-.117.141-.179.214Zm0,.143.138.028-.138.149Zm-1.43.458h1.147c-.117.115-.392.34-.4.348l-.746-.348Zm-1.19,0h.861l.95.444a6.532,6.532,0,0,1-.61.417Zm-.7,0h.463l1.309.937a6.215,6.215,0,0,1-.588.3C23.639,12.605,23.12,12.062,22.885,11.819Zm-.586,0h.392l1.242,1.294a6.25,6.25,0,0,1-.722.251Zm-.162,0,.935,1.583a6.65,6.65,0,0,1-.785.154l-.482-1.737h.331Zm-1.668,0H20.8l-.482,1.737a6.65,6.65,0,0,1-.785-.154C19.885,12.81,20.352,12.018,20.469,11.819Zm-.554,0h.392L19.4,13.364a6.13,6.13,0,0,1-.722-.251c.5-.519,1.1-1.144,1.24-1.294Zm-.655,0h.461l-1.185,1.235a6.214,6.214,0,0,1-.588-.3Zm-2.174.348c-.011-.009-.285-.24-.4-.348H17.83Zm1.073-.348h.861l-1.2.861a6.165,6.165,0,0,1-.608-.417ZM16.4,11.361v.175c-.046-.048-.093-.1-.138-.147Zm0-.363v.219l-.244.05c-.061-.071-.121-.141-.179-.214Zm0-.331v.19l-.523.071c-.054-.071-.108-.143-.162-.216l.684-.045Zm0-.145-.781.052q-.081-.117-.156-.234H16.4Z" transform="translate(-9.379 -9.421)" fill="#fff"/>
    <path id="Path_42" data-name="Path 42" d="M383.4,50.739l0,0V49.4h9.53v1.337l0,0Z" transform="translate(-376.239 -48.481)" fill="url(#linear-gradient)"/>
    <path id="Path_43" data-name="Path 43" d="M393.846,60.9h-.039l-.407.911h.11l0-.006a3.043,3.043,0,0,1,.117-.318l.009-.022h.314c.043.1.086.208.132.34l0,.006h.152Zm-.179.5c.007-.02.115-.27.128-.3.013.03.121.281.13.3Zm.616.35,0,0a.34.34,0,0,0,.216.076.3.3,0,0,0,.325-.3c0-.147-.112-.19-.218-.232s-.186-.073-.186-.18a.144.144,0,0,1,.154-.141.157.157,0,0,1,.152.106l0,.006h.024l.037-.115,0,0a.3.3,0,0,0-.188-.063c-.179,0-.294.1-.294.253s.117.2.221.244.18.071.18.179a.172.172,0,0,1-.169.179.217.217,0,0,1-.2-.13l0,0h-.024Zm1.261-.828h-.67v.093h.009a2.464,2.464,0,0,1,.272-.015v.818h.128V61a2.252,2.252,0,0,1,.258.015l.009,0v-.095Zm.461-.019a.454.454,0,0,0-.484.465.445.445,0,0,0,.48.461.462.462,0,0,0,.5-.48A.446.446,0,0,0,396.006,60.9Zm.238.768a.313.313,0,0,1-.236.1.344.344,0,0,1-.342-.389c0-.26.136-.422.353-.422a.331.331,0,0,1,.26.121.419.419,0,0,1,.08.277v.019A.458.458,0,0,1,396.244,61.668Zm1.149-.749h-.08v.66h0c0-.006-.61-.66-.61-.66h-.061v.893h.087v-.69h0l.551.61.069.08h.05v-.893Zm1.441,0H398.8l-.216.392s-.138.249-.149.272c-.134-.223-.253-.456-.355-.658l0,0h-.045v.007c-.013.132-.089.67-.123.876l0,.009h.108v-.007a4.973,4.973,0,0,1,.046-.511l.015-.123c.015.03.182.348.247.48l.073.149h.024l0-.006c.074-.171.18-.366.324-.625.02.154.048.461.063.636v.007h.138l0-.009c-.032-.216-.065-.5-.1-.876V60.92Zm.612-.019h-.039l-.407.911h.112l0-.006c.033-.112.076-.218.117-.322l.007-.019h.314c.043.1.087.212.132.34l0,.006h.153Zm-.179.5c.009-.02.115-.27.128-.3l.13.3Zm.962-.026c.162-.033.257-.125.257-.247s-.095-.2-.292-.2h-.279v.893h.128v-.428h.037c0,.006.1.117.1.117l.151.2.084.113h.167Zm-.186-.05v-.338a1.155,1.155,0,0,1,.18,0,.143.143,0,0,1,.134.154.177.177,0,0,1-.158.175A.681.681,0,0,1,400.043,61.32Zm1.187-.4h-.67v.093h.009a2.464,2.464,0,0,1,.272-.015v.818h.13V61a2.251,2.251,0,0,1,.258.015l.009,0v-.095Zm.113.893h.121v-.893h-.121Zm.984-.893v.66h0l-.61-.66h-.061v.893h.087v-.69h0l.552.61.069.08h.05v-.893Z" transform="translate(-386.053 -59.767)" fill="#fff"/>
  </g>
</svg>
