<svg xmlns="http://www.w3.org/2000/svg" width="15.107" height="20.432" viewBox="0 0 15.107 20.432">
  <g id="ferrari-ges" transform="translate(-31.407 -8.504)">
    <path id="Path_7" data-name="Path 7" d="M46.514,13.259v.389L38.96,12.324l-7.553,1.324v-.389l7.553-1.333Z" transform="translate(0 -3.024)" fill="#fff" fill-rule="evenodd"/>
    <path id="Path_8" data-name="Path 8" d="M46.514,9.836v.4L38.96,8.9l-7.553,1.333v-.4L38.96,8.5Z" transform="translate(0)" fill="#33a457" fill-rule="evenodd"/>
    <path id="Path_9" data-name="Path 9" d="M46.514,16.674,38.96,15.35l-7.553,1.324v1.343l.065-.037a16.5,16.5,0,0,1,7.5-1.5,16.278,16.278,0,0,1,7.472,1.5l.065.037Z" transform="translate(0 -6.05)" fill="#cc2131" fill-rule="evenodd"/>
    <path id="Path_10" data-name="Path 10" d="M40.948,27.3a16.406,16.406,0,0,1,7.277,1.432v3.867a14.331,14.331,0,0,1-1.475,6.244,14.071,14.071,0,0,1-5.816,6.418,14.065,14.065,0,0,1-5.819-6.418,14.331,14.331,0,0,1-1.475-6.244V28.728A16.626,16.626,0,0,1,40.948,27.3Z" transform="translate(-1.973 -16.606)" fill="#fff22d" fill-rule="evenodd"/>
    <path id="Path_11" data-name="Path 11" d="M31.474,26.562l-.065.037V30.62a14.579,14.579,0,0,0,1.5,6.355,14.154,14.154,0,0,0,6,6.568l.054.025.054-.025a14.158,14.158,0,0,0,6-6.568,14.573,14.573,0,0,0,1.5-6.355V26.6l-.065-.037a16.277,16.277,0,0,0-7.472-1.5,16.5,16.5,0,0,0-7.5,1.5Zm7.5-1.241a16.406,16.406,0,0,1,7.277,1.432V30.62a14.331,14.331,0,0,1-1.475,6.244,14.071,14.071,0,0,1-5.816,6.418,14.065,14.065,0,0,1-5.819-6.418,14.331,14.331,0,0,1-1.475-6.244V26.754a16.626,16.626,0,0,1,7.308-1.433Z" transform="translate(-0.002 -14.632)" fill-rule="evenodd"/>
    <path id="Path_12" data-name="Path 12" d="M76.384,107.728c.126.087.035.238-.059.262s-.18-.081-.227.037a.516.516,0,0,0,.536.543c.458,0,.677-.589.72-.677s.071-.2.028-.2a.274.274,0,0,0-.26.119.242.242,0,0,1,.085-.2.315.315,0,0,1,.23-.054c.082,0,.069-.061.119-.182a1.677,1.677,0,0,1,.264-.427c.061-.106-.054-.147-.281-.168a1.755,1.755,0,0,0-.451,0,.308.308,0,0,0-.266.211c-.034.084.028.167.147.146a.636.636,0,0,0,.233-.112.37.37,0,0,1-.231.257c-.165.04-.359-.059-.333-.225a.513.513,0,0,1,.456-.428,1.807,1.807,0,0,1,.788.047,1.889,1.889,0,0,0,.645.011,2.837,2.837,0,0,0,.785-.14,1.565,1.565,0,0,1-.521.259,6.531,6.531,0,0,1-.66.083.809.809,0,0,0-.253.33c-.076.147-.156.317-.121.317a.767.767,0,0,0,.385-.051.394.394,0,0,1-.19.179.846.846,0,0,1-.251.038s-.071.18-.151.342a1.165,1.165,0,0,1-.45.541.716.716,0,0,1-.982-.132c-.3-.433-.027-.926.265-.725Zm-3.526.057a.152.152,0,0,1-.132.218c-.069,0-.156-.051-.174.035a.661.661,0,0,0,.651.53c.467,0,.684-.27.651-.513-.037-.27-.466-.378-.809-.558-.168-.088-.546-.147-.546-.5,0-.757,1.152-.273,1.152-.273s0-.095.056-.1c.026,0,.078-.013.1.073s.093.541.093.541a1.1,1.1,0,0,0-.634-.5c-.082-.029-.442-.1-.439.187,0,.169.21.245.567.383.469.184.709.355.6.848a.757.757,0,0,1-.793.551.72.72,0,0,1-.742-.677c0-.367.36-.359.4-.249Zm2.461-2.846.189.09a.275.275,0,0,0,.2.013.436.436,0,0,0,.148-.21.1.1,0,0,0-.015-.093,2.746,2.746,0,0,1-.252-.7,2.473,2.473,0,0,1,.021-.48,1.474,1.474,0,0,0,.016-.273c-.013-.038-.07-.075-.135-.116l-.1-.07a.209.209,0,0,1-.06-.172l-.011-.1a2.329,2.329,0,0,0-.583-.594c-.109-.007-.137.112-.144.184a2.585,2.585,0,0,0,.088.4l.048.2a4.27,4.27,0,0,0,.527,1.106l.068.115c.029.067.018.119-.034.149a2.535,2.535,0,0,1-.694-.064,2.243,2.243,0,0,1-.307-.109,1.3,1.3,0,0,0-.307-.1.271.271,0,0,0-.145.025l-.047.013-.047-.015a1.324,1.324,0,0,0-.46-.1c-.429-.04-.461.046-.479.093s.241.338.288.375a.621.621,0,0,0,.37.1,3.174,3.174,0,0,1,.381-.043l.044.027.041.029a2.8,2.8,0,0,0,.349.032c.084,0,.3.05.464.084l.179.036A2.477,2.477,0,0,1,75.32,104.939Z" transform="translate(-36.275 -82.826)" fill-rule="evenodd"/>
    <path id="Path_13" data-name="Path 13" d="M68,38.238c-.01-.012-.017-.012-.022-.011s-.011.006-.012.02a.412.412,0,0,1-.142.236.5.5,0,0,0-.228.291c-.023.053-.046.1-.064.1s-.016-.008-.025-.025a.738.738,0,0,1,0-.482l.008-.039a1.317,1.317,0,0,1,.276-.431l.041-.05a.73.73,0,0,0,.067-.367.007.007,0,0,0-.008,0l0,0h0a.027.027,0,0,0-.01.018,1.458,1.458,0,0,1-.431.48,1.365,1.365,0,0,0-.165.2.529.529,0,0,1-.08.1.845.845,0,0,1,.108-.639l.026-.048a1.41,1.41,0,0,1,.4-.531.02.02,0,0,0,0-.024c-.011-.008-.031,0-.062.011l-.017.009a1.25,1.25,0,0,0-.582.545,1.683,1.683,0,0,0-.183.749.782.782,0,0,0,.035.259,7.67,7.67,0,0,1,.212.768,5.934,5.934,0,0,1,.025.685c0,.109,0,.186,0,.189s-.057.182-.057.182a.882.882,0,0,1-.259.381,1.27,1.27,0,0,1-.5.315.454.454,0,0,1-.2-.01,2.5,2.5,0,0,0-.705-1.116,4.947,4.947,0,0,0-.769-.568,3.21,3.21,0,0,1-.716-1.073l-.032-.116s-.018-.232-.023-.292l.028.017.115.067.132.051.173.034.1.05.089.058.138.1.142.075.171.009,0-.014-.195-.091s-.07-.123-.07-.123l-.081-.117-.1-.061L64.407,38s-.025-.022-.037-.033l.032-.019s.134.017.134.017.119.082.119.082l.13.1.123.048.016.006-.053-.138-.1-.095-.147-.125-.116-.06-.123-.042-.129-.083s0-.009,0-.016l.179.072.156.042.13.05.187.091.157.035.192-.034.183-.126s.035-.078.035-.078l.007-.017-.058.024-.164.083-.113.025-.128-.026h0s-.1-.1-.1-.1l-.147-.142-.133-.068-.157-.026-.1-.049s0,0,0,0,0-.036,0-.048l.2.016.214-.017.12.025.122.05.125.017.022,0-.139-.133-.14-.1-.116-.043-.2-.017s0,0,0-.008a.345.345,0,0,0,0-.037l.09-.015.145.033.137.083.148.051.216-.033.013,0-.065-.085s-.11-.036-.11-.036l-.088-.066-.131-.092-.1-.034-.156-.025s-.076-.071-.077-.073a.141.141,0,0,0,.009-.036l.081.023.1.05.149.047-.033-.066-.058-.06L64.81,36.7l.022-.005s.158.083.158.083l.123.042.1.09.182.1.018.01-.033-.088-.1-.127-.081-.141-.148-.152-.19-.1-.071-.082-.131-.134s-.013-.048-.02-.071l.127.042.147.042.1.066.087.107s.142.061.142.061l.355.046.021,0-.1-.1-.191-.085-.113-.082s-.063-.115-.063-.115l-.066-.117-.107-.1-.132-.076-.129-.108s-.031-.066-.051-.109l.09.087.172.15.133.06.112.091.13.133s.208.031.208.031l.025,0-.207-.179s-.047-.147-.047-.147l-.108-.1-.056-.066s-.056-.173-.056-.173l-.116-.119-.187-.176h0s-.007-.029-.01-.047l.034.018.171.1.206.059.213.05.246.039-.058-.117s-.126-.054-.126-.054l-.114-.066-.14-.059-.122-.05s-.079-.1-.123-.16l.108.073.11.01h.335l.136.075.116.125.015.016-.014-.141s-.075-.1-.075-.1l-.2-.11-.156-.059-.238-.042h0s-.045-.056-.045-.056l-.172-.159-.083-.043-.042-.044h.088s.135.083.135.083l.181.059.23.034h0s.085.1.085.1l.124.076.142.025.02,0-.291-.357-.141-.077-.164-.051S65,34.178,65,34.178l-.182-.11-.131-.032.035-.058s.144-.064.144-.064l.211-.041a.331.331,0,0,0,.022-.055.817.817,0,0,0-.093-.067l-.108-.034a.658.658,0,0,0-.064.034s-.176.007-.176.007l-.211-.05s-.217-.182-.217-.182l-.1-.051-.362-.042s-.084-.13-.084-.13l-.115-.126-.147-.133,0,.01-.049.109-.048.074v0c0,.014.007.086.007.086s.05.053.051.055-.018.076-.018.076-.2,0-.2,0L63,33.383l-.124-.042-.288.008a.926.926,0,0,0-.055.078l-.007.01.126.018.029.019-.032.026s-.175-.01-.175-.01l-.126.05-.013.005.061.041s.265.01.265.01l.194.05h0s.037.055.037.055l.036.052-.083.046-.236.1-.491.275-.323.048-.126.07s-.1.14-.1.14-.057.173-.057.173c0,.291.007.3.011.3a.181.181,0,0,0,.159.019,1.494,1.494,0,0,1,.313-.1c.04-.008.059.006.063.021s-.008.039-.038.047L62,34.9c-.143.039-.288.086-.283.141l.025.042a.513.513,0,0,0,.317,0l.092-.026a.657.657,0,0,1,.246-.042.42.42,0,0,1,.13.046.6.6,0,0,0,.241.071.945.945,0,0,1,.309.059.3.3,0,0,1,0,.178l-.009.052a2.582,2.582,0,0,1-.8,1.206,1.037,1.037,0,0,0-.118.128l-.028.065a.2.2,0,0,1-.12.142,2,2,0,0,0-.269.186,1.645,1.645,0,0,1-.449.284,3.213,3.213,0,0,1-.583-.351c-.452-.437-.641-.348-.755-.294l-.018.008c-.135.061-.276.443-.289.525l-.055.235-.042.173c-.012.058-.068.2-.121.341l-.109.3a1.837,1.837,0,0,1-.1.248l-.048.118a3.3,3.3,0,0,0,.024.962l0,0,.012,0c.059-.006.185-.136.245-.2l.014-.015a.492.492,0,0,0,.105-.246,1.007,1.007,0,0,0-.037-.207,1.348,1.348,0,0,1-.036-.6l.006-.051a.356.356,0,0,1,.109-.168l.065-.075a.226.226,0,0,1,.111-.078l.058-.033.009-.009a.5.5,0,0,0,.132-.191l.055-.239.012-.064a.025.025,0,0,1,.02-.022.082.082,0,0,1,.069.031l.4.464a.949.949,0,0,1,.208.214v0h0a2.489,2.489,0,0,1-.385-.068c-.383-.112-.558-.093-.693.076a1.413,1.413,0,0,0-.074.85c.029.059.169.78.175.876a.72.72,0,0,0,.081.3l.01.011a.662.662,0,0,1,.194.295,1.179,1.179,0,0,0,.417.526.053.053,0,0,0,.048-.009c.083-.059.121-.346.125-.468a.421.421,0,0,0-.107-.3l-.022-.031a.3.3,0,0,0-.166-.093c-.021-.006-.05-.013-.05-.019s-.006-.224-.076-.267a.67.67,0,0,1-.118-.329,1.362,1.362,0,0,0-.08-.362.712.712,0,0,1-.06-.367.083.083,0,0,1,.075-.074.147.147,0,0,1,.123.033,2.789,2.789,0,0,0,.561.338,1.316,1.316,0,0,1,.3.215.491.491,0,0,0,.491.161.794.794,0,0,1,.137.008c-.048.019-.048.1-.044.131.049.349,1.319,1.308,1.418,1.362a3.869,3.869,0,0,1,.557.545.293.293,0,0,1,.066.167.286.286,0,0,0,.075.218.267.267,0,0,0,.191.1c.057,0,.095-.051.123-.088l.006-.008a.842.842,0,0,0,.2-.477c.015-.236.123-.329.158-.335.016,0,.027,0,.031.012s0,.029-.022.043a.525.525,0,0,0-.107.247s-.012.114-.012.114a.379.379,0,0,1-.09.273,1.561,1.561,0,0,0-.308.849,2.024,2.024,0,0,0,.32,1.024l.016.031.064.107a1.3,1.3,0,0,1,.167.315.372.372,0,0,1-.11.224,6.271,6.271,0,0,1-.539.6.19.19,0,0,0-.154.058l-.066.05a.221.221,0,0,0-.1.124.132.132,0,0,1-.051.073l-.025.017c-.005,0-.019.025-.177.183a.685.685,0,0,0-.234.583c.009.063.063.085.224.092a.911.911,0,0,0,.545-.334l.006-.032c.014-.076.038-.2.079-.221a.942.942,0,0,0,.2-.193l.012-.014a.232.232,0,0,0,.05-.114.228.228,0,0,1,.032-.085.155.155,0,0,1,.062-.042.269.269,0,0,0,.155-.164,1.9,1.9,0,0,1,.5-.435,1.405,1.405,0,0,0,.193-.15.291.291,0,0,0,.041-.163A.3.3,0,0,0,65.042,44a1.014,1.014,0,0,1-.162-.332h0c0-.026,0-.074-.006-.163a.111.111,0,0,1,0-.012c0-.236.351-.467.5-.566l.069-.048a1.888,1.888,0,0,0,.677-.953l.011-.121c0-.084.006-.164.057-.174a.092.092,0,0,1,.073.036.072.072,0,0,1,.017.071c-.025.068-.033.75-.034.779,0,0,.059.072.059.072l.01.012,0-.016c0-.008.032-.194.032-.26a1.165,1.165,0,0,1,.147-.394l0,0a1.043,1.043,0,0,1,.032.265.5.5,0,0,1-.071.3,1.551,1.551,0,0,0-.19.369l-.04.09a.1.1,0,0,0-.006.039.805.805,0,0,0,.074.305c.008.008.014.008.018.007s.018-.016.018-.088a.7.7,0,0,1,.235-.477.879.879,0,0,0,.249-.692,1.789,1.789,0,0,0-.026-.309l-.1-.143s.031-.02.04-.027l.1.135a.334.334,0,0,1,.055.111,1.331,1.331,0,0,0,.037.31l0,.017a3.375,3.375,0,0,0,.123.327l.011.025,0-.028a1.015,1.015,0,0,0,0-.235.785.785,0,0,1,.014-.215l.019-.184a.584.584,0,0,0-.075-.33L67,41.458a.134.134,0,0,1-.02-.037l.02-.009a1.21,1.21,0,0,0,.714-.64,1.486,1.486,0,0,0,.09-.529,2.682,2.682,0,0,0-.066-.637.908.908,0,0,1-.013-.366l.013-.224a.646.646,0,0,1,.159-.378l.093-.145a.259.259,0,0,0,0-.256Z" transform="translate(-24.515 -21.687)" fill-rule="evenodd"/>
    <path id="Path_14" data-name="Path 14" d="M92.04,33.446c.007,0,.1-.043.1-.043a.569.569,0,0,0-.017-.1l-.2-.235-.01-.012,0,.014-.021.094-.063.151,0,.006.134.068Z" transform="translate(-53.39 -21.703)" fill-rule="evenodd"/>
    <path id="Path_15" data-name="Path 15" d="M64.082,38.5a.118.118,0,0,0,.083-.009c.046-.022.074-.059.062-.086l-.021-.019a.115.115,0,0,0-.083.009c-.04.018-.065.047-.065.072a.038.038,0,0,0,0,.013Zm.8-.33.038.021a.049.049,0,0,0,.032.027A.055.055,0,0,0,65,38.2.036.036,0,0,0,65,38.162a.094.094,0,0,0-.079-.066c-.046,0-.087.005-.087.039S64.859,38.161,64.88,38.168Zm.046.135a.045.045,0,0,0-.02.048l0,.015c0,.017.006.021.022.023l.029.005a.11.11,0,0,0,.109-.043c0-.01.008-.028-.017-.046A.116.116,0,0,0,64.926,38.3Zm.119.517c-.011-.005-.006-.022,0-.047s.013-.039,0-.05-.025-.008-.053,0c-.1.036-.114.136-.125.21l0,.023c-.006.033.011.044.022.048A.121.121,0,0,0,65,38.964c.015-.025.1-.049.163-.066l.024-.007c.029-.008.044-.019.046-.034s-.019-.038-.038-.049a.1.1,0,0,0-.072.005A.133.133,0,0,1,65.045,38.82ZM64,38.858a.065.065,0,0,0,.05-.026.173.173,0,0,0,0-.174.163.163,0,0,0-.132-.1h0l-.011,0-.1.007a.15.15,0,0,0-.108.085.045.045,0,0,0,.01.048.476.476,0,0,0,.283.157Zm-.936-.076c.011.028.064.031.14.008l.017-.005.137-.054.2-.131c.006,0,.058-.044.047-.069s-.033-.013-.052-.01a.67.67,0,0,0-.166.064l-.081.038-.036.015C63.146,38.689,63.046,38.735,63.064,38.782Zm-.418.146a.087.087,0,0,0-.075.042l-.018.021a.188.188,0,0,0-.038.144c0,.021.008.059.028.071.039.024.058.007.1-.031l.031-.027a.205.205,0,0,0,.091-.128.073.073,0,0,0-.017-.06A.141.141,0,0,0,62.646,38.927Zm.229.018a.023.023,0,0,0-.023.005c-.012.012-.007.037,0,.057l0,.014,0,.008a.025.025,0,0,0,0,.024c.005.008.018.011.039.011s.03,0,.039-.027l.007-.018a.05.05,0,0,0,0-.043A.083.083,0,0,0,62.875,38.946Zm.221.359a.055.055,0,0,0,0-.109.055.055,0,0,0,0,.109Zm1-.133a.043.043,0,0,0-.042.016,1.917,1.917,0,0,1-.17.124l-.085.06-.007.007a.028.028,0,0,0-.009.037l.01.015.022,0,.033-.012.048-.007a.225.225,0,0,0,.122-.038l.032-.052.047-.075c.022-.025.024-.042.02-.051A.028.028,0,0,0,64.092,39.171Zm.1.3a.043.043,0,0,0,.022.043.058.058,0,0,0,.069-.025l.061-.053a.47.47,0,0,0,.1-.092c.03-.039.017-.063.006-.073a.073.073,0,0,0-.078-.013l-.018.012a.381.381,0,0,0-.158.162A.123.123,0,0,0,64.191,39.475Zm.4-.03a.041.041,0,0,0-.05-.018l-.043.033a.337.337,0,0,1-.1.065c-.079.021-.187.057-.193.111v.007a.035.035,0,0,0,.013.029c.03.025.1.01.156-.01a.545.545,0,0,0,.194-.125c.039-.036.037-.071.023-.092Zm-.308.627-.026,0c-.067.018-.181.214-.261.36l-.014.025-.24.45-.075.143a.036.036,0,0,0,.007.045.043.043,0,0,0,.057,0,1.277,1.277,0,0,0,.254-.285l.09-.124a1.066,1.066,0,0,0,.162-.26l.014-.035C64.339,40.153,64.353,40.116,64.28,40.072Zm.9-.865a.052.052,0,1,0,.037.014A.052.052,0,0,0,65.181,39.207Zm-.025.212a.052.052,0,0,0,.053.051.051.051,0,1,0,0-.1A.052.052,0,0,0,65.156,39.419Zm.049.113a.05.05,0,1,0,.061.048A.056.056,0,0,0,65.2,39.531Zm0,.141a.055.055,0,1,0,.068.054A.062.062,0,0,0,65.2,39.672Zm0,.179c-.042,0-.077.025-.077.057s.035.056.077.056.076-.025.076-.056S65.247,39.851,65.2,39.851Zm-.026.3c.048,0,.083-.03.08-.061l-.015-.027a.1.1,0,0,0-.074-.018c-.046,0-.08.029-.08.058v0l.015.027a.1.1,0,0,0,.073.018Zm-.1.15h0Zm.1.039c.053-.008.091-.037.087-.067l-.016-.025a.12.12,0,0,0-.086-.015c-.052.007-.091.037-.087.067l.016.025A.12.12,0,0,0,65.176,40.339Zm-.09.091c0,.033.04.059.092.059s.092-.026.092-.059-.04-.059-.092-.059S65.086,40.4,65.086,40.43Zm.163.192c0-.035-.048-.062-.109-.062s-.108.027-.108.062.048.062.108.062S65.25,40.657,65.25,40.622Zm-.069.162a.082.082,0,1,0-.079.062A.072.072,0,0,0,65.18,40.785Zm-.037.2a.086.086,0,1,0-.085.07A.078.078,0,0,0,65.143,40.988Zm-.069.2a.069.069,0,0,0-.138,0,.069.069,0,0,0,.138,0Zm-.119.117a.062.062,0,1,0,.066.062A.064.064,0,0,0,64.956,41.3Zm-.056.3a.055.055,0,1,0,0-.107.055.055,0,1,0,0,.107Zm-.063.13c.035,0,.063-.02.063-.045s-.028-.045-.063-.045-.064.02-.064.045S64.8,41.729,64.837,41.729Zm-.061.125c.033,0,.061-.02.061-.046s-.028-.045-.061-.045-.061.02-.061.045S64.741,41.854,64.775,41.854Zm-1.793-.111.011,0,.083-.015a1.616,1.616,0,0,1,.32-.045.893.893,0,0,1,.286.058c.071.024.107.034.12.019s0-.024,0-.034c-.021-.046-.115-.2-.421-.2a.51.51,0,0,0-.4.188c-.007.012-.009.02-.005.027Zm1.137.575a.068.068,0,0,0,.027-.066c-.007-.124-.04-.138-.108-.138a.128.128,0,0,0-.119.105c0,.034.025.063.073.088a.145.145,0,0,0,.127.011Zm.938,1.512c.1.046.133.062.148.067h0c.007,0,.009,0,.011,0l-.007-.008,0,0-.007,0a3.593,3.593,0,0,1-.542-1.008.2.2,0,0,0-.068-.14.1.1,0,0,0-.084,0h0a.028.028,0,0,0-.017.018.089.089,0,0,0,0,.032,1.946,1.946,0,0,0,.186.567C64.93,43.76,65.053,43.827,65.058,43.83Zm3.21.16-.015,0s0,.112,0,.253a2.919,2.919,0,0,1-.043.6,2.248,2.248,0,0,1-.268.443l-.124.186a.04.04,0,0,0-.005.02.056.056,0,0,0,.026.047c.012.009.057.031.12-.044l.079-.084a1.165,1.165,0,0,0,.33-.526A1.887,1.887,0,0,0,68.268,43.99Zm-3.307,1.034a.039.039,0,0,0,.041.006.068.068,0,0,0,.045-.059.272.272,0,0,1,.073-.139.125.125,0,0,0-.008-.174l-.053-.021a.1.1,0,0,0-.06.029q-.026.127-.052.254h0C64.942,44.935,64.938,45,64.961,45.024Zm1.713.936h-.005a.12.12,0,0,0-.059.065.093.093,0,0,0,.02.075l.015.028.006.055.01.081a.039.039,0,0,0,.04.028.059.059,0,0,0,.053-.049.792.792,0,0,0,.016-.181C66.768,45.991,66.677,45.961,66.673,45.961ZM64.015,45.3c-.006-.007-.634-.688-.769-.867s-.2-.2-.272-.159a.036.036,0,0,0-.018.028c-.01.074.147.254.284.386.192.185.759.619.765.623Zm-2.461-2.011a1.324,1.324,0,0,0-.35-.124l-.006.013.244.184c.04.033.218.143.275.1a.029.029,0,0,0,.011-.024C61.728,43.4,61.667,43.359,61.555,43.289Zm-.06-1.042.017-.007c.022-.025-.029-.1-.09-.152A.268.268,0,0,0,61.281,42l-.017.007a.023.023,0,0,0-.005.016.276.276,0,0,0,.095.136A.269.269,0,0,0,61.495,42.246Zm.653-.089-.025,0a.636.636,0,0,0-.183.293.963.963,0,0,0-.074.3c0,.034.007.056.023.063l.025,0a.647.647,0,0,0,.183-.293.966.966,0,0,0,.074-.3c0-.033-.007-.056-.023-.063Zm-1.175-.745c-.061,0-.11.029-.11.066s.049.065.11.065.111-.029.111-.065S61.035,41.413,60.973,41.413Zm-.391.813.019,0a.467.467,0,0,0,.121-.219c.04-.12.062-.248.023-.262l-.019,0a.461.461,0,0,0-.121.219C60.565,42.085,60.544,42.213,60.582,42.226Zm.1.619c.033-.044.039-.093.015-.111l-.028-.006a.119.119,0,0,0-.072.052c-.033.044-.039.093-.015.111l.028.007A.123.123,0,0,0,60.684,42.845Zm-.037.678,0,0h-.012c-.044.01-.013.2.01.3a.628.628,0,0,0,.106.273l0,0h.012c.045-.01.013-.2-.01-.3a.617.617,0,0,0-.106-.273Zm-.443.257a.059.059,0,1,0,.065.059A.062.062,0,0,0,60.2,43.78Zm1.088,1.389a.073.073,0,1,0,.075.073A.074.074,0,0,0,61.292,45.169ZM64.969,47.1s.009.016.019.015h0L65,47.107l.067-.206.053-.137.045-.1c.014-.035.014-.058,0-.072s-.066,0-.072,0-.127.208-.127.208a.253.253,0,0,0-.033.137A.393.393,0,0,0,64.969,47.1Zm.308,1.027,0-.021c0-.012.039-.3-.049-.409a.107.107,0,0,0-.076-.042.052.052,0,0,0-.055.022c-.054.088.157.418.166.432l.011.018Zm.492.544a.075.075,0,1,0,0,.151.075.075,0,1,0,0-.151Zm-1.159-.921a.063.063,0,1,0,0,.126.063.063,0,1,0,0-.126Zm.845,1.115-.008,0a1.187,1.187,0,0,0-.32.264c-.011.012-.292.3-.254.337l0,0,.009,0a1.181,1.181,0,0,0,.32-.264c.012-.012.293-.3.255-.337Zm-.841.777a.164.164,0,0,0-.093.055c-.039.039-.067.093-.047.115h0l.021.007a.16.16,0,0,0,.093-.055c.038-.04.067-.092.046-.115Zm-.369.532a.221.221,0,0,0-.163.166.033.033,0,0,0,.01.026l.026.01a.172.172,0,0,0,.1-.059c.052-.053.072-.109.049-.133ZM62.314,47.5c-.055,0-.1.032-.1.071s.045.07.1.07.1-.03.1-.07S62.37,47.5,62.314,47.5Zm.817.057c-.039,0-.07.021-.07.049s.031.048.07.048.069-.022.069-.048S63.169,47.556,63.131,47.556Zm1,.334.006-.009c.011-.047-.224-.12-.35-.152a.916.916,0,0,0-.37-.046l0,0-.006.01c-.011.047.224.12.35.153a.925.925,0,0,0,.371.044Z" transform="translate(-25.392 -26.152)" fill="#fff" fill-rule="evenodd"/>
  </g>
</svg>
