<svg xmlns="http://www.w3.org/2000/svg" width="21.949" height="19.362" viewBox="0 0 21.949 19.362">
  <g id="haas-f1-team-logo" transform="translate(0.001 -0.5)">
    <path id="Path_79" data-name="Path 79" d="M12.239.5a9.678,9.678,0,0,0-9.672,9.691c0,.2,0,.378.018.558H1.324a.16.16,0,0,0-.144.09C1.162,10.892.046,12.855.009,12.91c-.018.053-.018.072.037.072H2.981A9.689,9.689,0,1,0,12.239.5ZM5.323,12.982H7.9L6.656,15.144A7.778,7.778,0,0,1,5.323,12.982Zm6.917,4.664a7.387,7.387,0,0,1-5.206-2.124h2.09S15.139,4.913,15.175,4.858c.036-.035.018-.071-.037-.071H12.69c-.054,0-.054.018-.072.035-.018.035-3.4,5.926-3.4,5.926H4.8a5.561,5.561,0,0,1-.019-.558A7.453,7.453,0,0,1,17.607,5c-.594.991-3.224,5.476-3.584,6.124-.2-.468-1.153-.378-1.657-.4-.216.36-1.207,2.251-1.207,2.251H12.2c.486,0,.54.5.343.828s-.973,1.711-.973,1.711h2.54L18.994,7a7.33,7.33,0,0,1,.72,3.189,7.475,7.475,0,0,1-7.475,7.456Z" transform="translate(0)" fill="#ed1a3b" fill-rule="evenodd"/>
  </g>
</svg>
