<svg xmlns="http://www.w3.org/2000/svg" width="23.347" height="12.818" viewBox="0 0 23.347 12.818">
  <path id="McLaren_Speedmark" d="M12.287,12.7c.1-.138.207-.275.31-.414a11.877,11.877,0,0,0,1.6-2.772,4.326,4.326,0,0,0,.312-1.43A2.255,2.255,0,0,0,13.382,6a5.207,5.207,0,0,0-1.95-.678,15.037,15.037,0,0,0-3.769-.09,29.679,29.679,0,0,0-6,1.131c-.451.133-.893.3-1.34.449A.224.224,0,0,1,.2,6.828c.328-.2.654-.4.983-.6A49.392,49.392,0,0,1,7.375,3.064,44.361,44.361,0,0,1,15.621.4,20.162,20.162,0,0,1,19.93-.091a6.791,6.791,0,0,1,2.283.344,2.225,2.225,0,0,1,.956.611,1.685,1.685,0,0,1,.269,1.694,5.689,5.689,0,0,1-.975,1.793,19.62,19.62,0,0,1-2.738,2.862,58.157,58.157,0,0,1-5.653,4.325c-.583.4-1.172.793-1.758,1.188Z" transform="translate(-0.2 0.091)" fill="#ff8000"/>
</svg>
