<svg xmlns="http://www.w3.org/2000/svg" width="23.789" height="9.021" viewBox="0 0 23.789 9.021">
  <g id="Red-Bull-Logo" transform="translate(-78 -100.5)">
    <path id="Path_3" data-name="Path 3" d="M141.8,105.01a4.51,4.51,0,1,1,4.51,4.51,4.506,4.506,0,0,1-4.51-4.51" transform="translate(-56.364)" fill="#ffd300"/>
    <path id="Path_4" data-name="Path 4" d="M86.321,114.376c.07.035.14.07.221.117.338.233.559.431,1.072.862.152.152.326.4.455.548a1.917,1.917,0,0,1,.513.886,6.076,6.076,0,0,0,.385,1.5,1.275,1.275,0,0,0,.175.21c.14.175.2.455.455.606a2.046,2.046,0,0,1,.21.128c.07.058-.047.268-.408.221.186.093.163.3-.1.315a1.19,1.19,0,0,1-.921-.361c-.035-.035-.14.1-.326.175-.186.093-.443,0-.641.035a5.533,5.533,0,0,1-.629.163c-.35.012-.4-.233-.4-.443v-.093a2.063,2.063,0,0,1-.163.35.48.48,0,0,1-.245.28l-.373.047c-.291.128-.583.221-.886.326a.624.624,0,0,1-.5-.1.881.881,0,0,1-.221-.291c-.058-.023-.14,0-.21-.023a.263.263,0,0,1-.128-.093l-.256-.431a.289.289,0,0,1,0-.2.28.28,0,0,1,.256-.14,1.4,1.4,0,0,1,.583,0c.082-.093.21-.082.326-.1a1.159,1.159,0,0,0-.175-.163,2.588,2.588,0,0,1-1.037-.035c-.3-.07-.559.1-.862.058l-.093.2c-.14.152-.152.408-.361.513a1.61,1.61,0,0,0-.4.21,1.262,1.262,0,0,1-.8.023.519.519,0,0,0-.268.035c-.082.058-.175.152-.268.221-.152.058-.28.186-.443.2-.093,0-.186-.058-.28-.035-.117.128-.175.338-.361.4a1.193,1.193,0,0,1-.606-.035c-.058.023-.093.07-.163.058a1.443,1.443,0,0,1-.373-.14.3.3,0,0,1-.07-.152c0-.082.07-.152.1-.221a1.169,1.169,0,0,1,.047-.28.6.6,0,0,1,.315-.268.3.3,0,0,1,.152-.221c.152-.082.315-.268.513-.163l.21.175c.186-.082.14-.268.233-.42.047-.1.1-.221.221-.221.082-.012.175.012.256,0a.685.685,0,0,0,.326-.175l-.012-.07a1.8,1.8,0,0,1-.163-.758,2.038,2.038,0,0,1-.653.012,1.027,1.027,0,0,1-.769-.629,1.049,1.049,0,0,1,.14-1.026,3.771,3.771,0,0,1,.583-.559c-.07-.023-.152-.012-.221-.035a.872.872,0,0,1-.676-.618.743.743,0,0,1,.093-.548c.035-.035.07-.07.128-.047a3.294,3.294,0,0,1,.338.21l.082.047c.385.128.9.128,1.049.606a.84.84,0,0,1-.408.862,1.6,1.6,0,0,0-.524.559.4.4,0,0,0,.117.443.538.538,0,0,0,.559.07,4.474,4.474,0,0,0,.921-.571,1.68,1.68,0,0,1,.979-.3,1,1,0,0,0,.431-.21,1.689,1.689,0,0,1,.734-.455c.128-.023.256-.035.385-.047.1-.047.175-.175.256-.233.385-.338.9-.326,1.305-.594a1.22,1.22,0,0,1,.792-.28,1.326,1.326,0,0,1,.385.082Zm.385,3.963a4.954,4.954,0,0,0-.594.093.957.957,0,0,0,.233.478c.07-.268.291-.373.361-.571m6.562.058c.117.175.186.35.291.536a3.594,3.594,0,0,1,.291-.5,3.248,3.248,0,0,1-.583-.035m.245.862c-.012.035-.035.047-.082.047a.413.413,0,0,1-.373.478c-.2.012-.524-.186-.711-.2s-.559.14-.769-.175a1.061,1.061,0,0,1-.886.42c-.163,0-.338-.093-.093-.3-.536.175-.536-.186-.443-.256a2.243,2.243,0,0,0,.326-.28c.746-.781.466-2.133,1.282-3.03a6.362,6.362,0,0,1,1.212-1c.221-.152.443-.373.653-.524l.012.023v-.012a1.175,1.175,0,0,1,.385-.221,1.136,1.136,0,0,1,.781.21,1.431,1.431,0,0,1,.3.291c.07.07.175.07.268.1a1.967,1.967,0,0,1,.723.291c.152.093.28.256.466.28a1.711,1.711,0,0,1,.618.221,1.972,1.972,0,0,0,.723.385,3.165,3.165,0,0,1,1.468.688,1.08,1.08,0,0,0,.874.221.313.313,0,0,0,.186-.2.708.708,0,0,0-.233-.524c-.268-.315-.734-.583-.676-1.037a1.045,1.045,0,0,1,.746-.629c.163-.058.361-.035.5-.175.07-.047.1-.21.221-.152a.345.345,0,0,1,.117.28.788.788,0,0,1-.326.839,1.252,1.252,0,0,1-.455.163,2.332,2.332,0,0,1,.629.723,1.187,1.187,0,0,1,.14.489,1.006,1.006,0,0,1-.524.827,1.222,1.222,0,0,1-.583.128c-.082,0-.152-.023-.221-.023a1.566,1.566,0,0,1,0,.571,2.106,2.106,0,0,0-.07.315.2.2,0,0,0,.175.058c.152,0,.338-.012.42.152s.1.326.163.478c.023.023.035.082.07.07.1-.093.21-.221.361-.186.14.093.28.2.42.3a.256.256,0,0,1,.058.14c.117.047.268.128.3.268.023.093.012.186.035.268s.128.21.058.326l-.047.035-.443.14a.161.161,0,0,1-.1-.058c-.233-.012-.513.058-.7-.1a1.014,1.014,0,0,1-.2-.245.5.5,0,0,1-.478.023,1.54,1.54,0,0,0-.979-.431,1.015,1.015,0,0,1-.559.012,1.74,1.74,0,0,1-.478-.35,1.412,1.412,0,0,1-.256-.676,3.008,3.008,0,0,1-.793.012,2.106,2.106,0,0,0-.606.07,3.373,3.373,0,0,1-.769.058l-.128.093a.278.278,0,0,1,.163.058l.047.047a5.96,5.96,0,0,1,.653.035.2.2,0,0,1,.117.1.185.185,0,0,1-.012.175,2.134,2.134,0,0,1-.3.42c-.035.047-.14-.012-.152.07a.614.614,0,0,1-.443.431.567.567,0,0,1-.245-.023c-.245-.082-.49-.151-.734-.221a.934.934,0,0,1-.221-.152c-.1,0-.256.035-.326-.058a.341.341,0,0,1-.082-.14,1.235,1.235,0,0,1-.175-.455" transform="translate(0 -12.046)" fill="#ffd300" fill-rule="evenodd"/>
    <g id="Group_6" data-name="Group 6" transform="translate(78.188 102.213)">
      <path id="Path_5" data-name="Path 5" d="M87.628,116.785a1.031,1.031,0,0,1,.023.594.022.022,0,0,1-.035,0,3.785,3.785,0,0,0-.128-.489c-.035-.093-.151-.175-.1-.28a.109.109,0,0,1,.1-.012,1.112,1.112,0,0,1,.14.186m1.865,1.632a.576.576,0,0,1,.175.513c-.023.035-.012.1-.07.117-.023.012-.047-.012-.047-.035a.645.645,0,0,0-.07-.3c-.07-.07-.152-.21-.268-.21-.082.023-.14.117-.186.175,0,.012-.012.012-.023,0-.047-.117.047-.21.082-.3.07-.07.058-.268.21-.21.1.07.128.186.2.256m-.245,1.387a.222.222,0,0,1-.058.221.567.567,0,0,1-.245.023c-.023-.012-.047-.023-.035-.047a.385.385,0,0,1,.256-.245c.023,0,.07,0,.082.047M80.74,115.55a1.46,1.46,0,0,1,.793.291.479.479,0,0,1,.035.524c-.163.28-.489.42-.688.664a.664.664,0,0,0-.21.676.578.578,0,0,0,.513.385,1.613,1.613,0,0,0,.886-.326,2.9,2.9,0,0,1,.851-.536c.21-.07.443-.035.653-.117a1.338,1.338,0,0,0,.571-.4,1,1,0,0,1,.688-.245c.233.035.361-.175.524-.315a3.029,3.029,0,0,1,.932-.408,4.44,4.44,0,0,0,.606-.338.934.934,0,0,1,.664-.023,1.77,1.77,0,0,1,.385.21l.944.793a.136.136,0,0,0,.07.07,9.143,9.143,0,0,1,.769,1,1.6,1.6,0,0,1,.14.4,5.424,5.424,0,0,0,.361,1.468c.047.07.14.128.186.2.152.21.245.478.49.618l.14.07a.035.035,0,0,1,0,.047l-.023.023a.689.689,0,0,1-.664-.338.887.887,0,0,0-.431-.466.041.041,0,0,0-.023.012c.023.07.093.117.117.175a1.429,1.429,0,0,1,.186.408c.047.152.21.256.338.338l.186.093a.044.044,0,0,1,.012.07l-.023.012a1.032,1.032,0,0,1-.816-.326.259.259,0,0,0-.2-.1.78.78,0,0,1-.466.256,1.09,1.09,0,0,0-.583.035,1.514,1.514,0,0,1-.5.128.222.222,0,0,1-.21-.117c0-.1-.07-.221-.012-.326l.117-.175c0-.023-.012-.047-.035-.047-.047-.012-.128.07-.152-.012.012-.175.186-.291.3-.408a.744.744,0,0,1,.186-.385.037.037,0,0,0-.035-.035,3,3,0,0,1-.466.058.586.586,0,0,1-.443.07c-.035-.023-.023-.058-.012-.082a1.006,1.006,0,0,0,.175-.769c-.012-.012-.012-.035-.035-.035s-.023.023-.035.035a1.6,1.6,0,0,1-.256.676.814.814,0,0,1-.408.14.1.1,0,0,0-.07.082c0,.093.058.151.093.233l.3.559a1.431,1.431,0,0,1-.093.443c.012.023.035.012.058,0a.822.822,0,0,0,.221-.361.3.3,0,0,0-.035-.175L87,119.314c.023-.035.07-.035.1-.047a.708.708,0,0,1,.21.058,2.03,2.03,0,0,0,.28.548c.023.1.058.245-.012.326a2.6,2.6,0,0,1-.233.385c-.082.082-.2.07-.315.082H87a4.679,4.679,0,0,1-.874.338.386.386,0,0,1-.385-.07,1.127,1.127,0,0,1-.221-.3c-.082-.1-.21-.012-.3-.07a4.423,4.423,0,0,1-.233-.4.1.1,0,0,1,.035-.093,1.576,1.576,0,0,1,.338-.047.363.363,0,0,1,.291.082c.14.163.2.385.408.489a.831.831,0,0,0,.443-.1c.082-.047.175-.117.175-.221a.65.65,0,0,0-.326-.489,1.557,1.557,0,0,1-.49-.385,1.017,1.017,0,0,1-.117-.291.055.055,0,0,0-.07-.012c-.07.058-.012.163-.012.233.012.047.035.1.012.14-.1.082-.245.035-.373.047a5.549,5.549,0,0,0-.769-.093c-.256.012-.606.186-.793-.07a1.482,1.482,0,0,1-.023-.781.05.05,0,0,0-.047-.047.043.043,0,0,0-.058.023c-.07.245-.082.513-.14.769a1.147,1.147,0,0,1-.478.571,1.8,1.8,0,0,1-.676.163,1.31,1.31,0,0,0-1.13.478c-.023.035-.058.07-.047.117.012.012.047.023.058.012a1.35,1.35,0,0,1,1.131-.455,1.275,1.275,0,0,0,1.107-.431,1.986,1.986,0,0,0,.175-.256c.047,0,.082.058.117.082.012.128-.093.21-.14.315a.733.733,0,0,1-.233.326,1.719,1.719,0,0,0-.385.2.712.712,0,0,1-.443.047,1.155,1.155,0,0,0-.629,0c-.093.058-.175.163-.268.221-.128.058-.245.163-.4.152-.1-.023-.233-.093-.326,0-.117.1-.14.291-.291.361-.175.093-.361,0-.536-.012a.806.806,0,0,1,.163-.466.366.366,0,0,0,.186-.07.78.78,0,0,0,.163-.221,1.052,1.052,0,0,0,.42-.326,1.561,1.561,0,0,1,.186-.431l.058-.023.315-.023a1.619,1.619,0,0,0,.361-.21.168.168,0,0,0,.035-.152,2.533,2.533,0,0,1-.14-.42c-.035-.163-.012-.326-.035-.513-.012-.012-.023-.047-.047-.047a1.673,1.673,0,0,1-.641.07.927.927,0,0,1-.758-.559.9.9,0,0,1,.117-.874,4.623,4.623,0,0,1,.653-.606c.035-.023.035-.07.047-.1s-.047-.082-.082-.1c-.14-.035-.3.012-.443-.047a.715.715,0,0,1-.466-.571.453.453,0,0,1,.07-.3,1.4,1.4,0,0,0,.5.35m-.7,5.21v.035a4.423,4.423,0,0,0-.14.466.982.982,0,0,1-.28-.082c-.023-.023,0-.047,0-.07.1-.093.07-.21.093-.338a.261.261,0,0,1,.152-.163c.082.012.128.093.175.152m.513-.49a.726.726,0,0,1-.268.326.227.227,0,0,1-.152-.012c-.023-.023-.07-.047-.07-.093s-.012-.1.035-.128a2.059,2.059,0,0,0,.28-.2c.023-.012.07-.023.082,0,.047.035.082.058.093.1m5.839-.047c.012.047.082.1.035.152a.46.46,0,0,1-.326.1c-.093-.07-.082-.2-.163-.291-.023-.07-.128-.07-.1-.14l.035-.023a2.131,2.131,0,0,0,.385-.023c.128-.012.093.14.14.221m7.366-1.9a1.286,1.286,0,0,1,.175.3.077.077,0,0,1-.012.07c-.012.023-.035.047-.07.023-.082-.023-.07-.152-.175-.14-.07,0-.117.058-.175.093-.1.093-.245.186-.268.326-.023.047-.012.128-.058.152a.045.045,0,0,1-.058-.035.624.624,0,0,1,.175-.489,2.586,2.586,0,0,0,.326-.385.132.132,0,0,1,.14.082m.047,1.55c.023.047.07.1.035.163-.047.035-.128.012-.186.012a.227.227,0,0,1-.093-.21.064.064,0,0,1,.023-.058.276.276,0,0,1,.221.093m1.748-3.566c.035.047,0,.093-.023.128a2.772,2.772,0,0,0-.478.5.648.648,0,0,0-.1.2c0,.012-.012.012-.023.012a.507.507,0,0,1,.035-.291,1.4,1.4,0,0,1,.466-.583c.023-.012.1-.023.128.035m.664-.746c.128.082.175.256.326.291a3.265,3.265,0,0,1,.746.233,2.413,2.413,0,0,1,.466.326,3.029,3.029,0,0,0,.466.117,2.212,2.212,0,0,1,.594.35c.256.2.618.175.909.3a10.492,10.492,0,0,1,1.27.723.879.879,0,0,0,.781.035.423.423,0,0,0,.21-.443c-.082-.478-.606-.723-.851-1.119a.53.53,0,0,1-.058-.326.9.9,0,0,1,.548-.443c.163-.082.373-.058.524-.152a.739.739,0,0,0,.14-.117c.035,0,.035.035.047.058a.7.7,0,0,1-.245.734.8.8,0,0,1-.315.117c-.093.035-.28-.035-.268.128.023.082.093.128.152.186a1.607,1.607,0,0,1,.664,1.037.832.832,0,0,1-.489.746,1.157,1.157,0,0,1-.688.058c-.058-.012-.152-.07-.2.012-.012.093.047.163.047.245a1.214,1.214,0,0,1-.023.5c-.023.117-.14.256-.035.373.1.163.315.117.489.14.093.012.128.117.152.186.035.093.035.2.07.268,0,.175.2.245.291.361.117.128.221.35.42.338a1.324,1.324,0,0,1,.128.431l-.023.023c-.163,0-.385.047-.5-.07-.14-.093-.186-.35-.4-.28a.331.331,0,0,1-.326.047,1.383,1.383,0,0,1-.268-.186,1.25,1.25,0,0,0-1.014-.233c-.21.058-.373-.093-.536-.186a.662.662,0,0,1-.326-.524l-.035-.245a.077.077,0,0,1,.047-.058h.035a1.307,1.307,0,0,0,.688.723c.291.117.559-.035.874.023a1.551,1.551,0,0,1,.746.4c.023,0,.035-.012.047-.035v-.023a1.2,1.2,0,0,0-1.072-.478.879.879,0,0,1-.921-.35,1.468,1.468,0,0,1-.233-.559,3.4,3.4,0,0,0-.163-.7c-.023-.012-.047-.035-.07-.023l-.023.035a1.513,1.513,0,0,1,.023.723.433.433,0,0,1-.42.268c-.175.012-.338-.023-.524-.023-.42-.012-.793.152-1.224.117.035-.1.1-.21.07-.326-.012-.023-.047-.023-.07-.023-.082.047-.07.152-.117.221a.736.736,0,0,1-.443.326,2.4,2.4,0,0,0-.35.338.173.173,0,0,0-.023.152c.082.21.326.233.513.291a.212.212,0,0,0,.221-.1c.082-.128.093-.338.28-.361h.408a.157.157,0,0,1,.082.07l-.012.058c-.093.1-.128.256-.245.326-.07.023-.152,0-.2.058a.442.442,0,0,1-.2.361c-.1.093-.256.047-.373.012-.221-.082-.443-.128-.664-.2-.093-.023-.128-.14-.233-.163s-.2.047-.28-.035a1.216,1.216,0,0,1-.093-.291.774.774,0,0,1-.07-.233.293.293,0,0,1,.023-.175l.3-.548a.184.184,0,0,1,.082-.082.852.852,0,0,1,.221.082l-.012.035-.315.478a.524.524,0,0,0,.07.455c.012.012.023.035.035.023a.815.815,0,0,1,0-.291,1.056,1.056,0,0,1,.128-.256l.245-.361a.227.227,0,0,0-.023-.21c-.1-.1-.256-.14-.35-.28a1.653,1.653,0,0,1-.245-.921.086.086,0,0,0-.058-.07c-.023-.012-.047.023-.058.035a1.365,1.365,0,0,0,.035.688,2.061,2.061,0,0,0,.175.443c.012.023-.012.058-.035.07a2.154,2.154,0,0,1-.478-.023,1.36,1.36,0,0,1-.536-.326c-.023-.012-.035.012-.047.023.047.233.3.373.385.583.047.175.221.3.256.489a.1.1,0,0,1-.047.07c-.058.012-.117-.023-.175.012-.012.1.058.21.012.3s-.14.2-.245.2c-.21-.07-.42-.163-.629-.221a2.749,2.749,0,0,0-.443.023c-.14-.023-.233-.152-.338-.221a.088.088,0,0,0-.093.012,1.2,1.2,0,0,1-.839.478c-.023,0-.035-.023-.035-.047v-.023a1.336,1.336,0,0,0,.408-.478c.047-.163.186-.28.245-.431.012-.023-.012-.035-.035-.047l-.035.023a3.784,3.784,0,0,0-.431.559.549.549,0,0,1-.513.163c-.023-.012-.023-.047-.012-.07.723-.443.8-1.235,1-1.958a2.984,2.984,0,0,1,.618-1.352,19.391,19.391,0,0,1,1.876-1.515.491.491,0,0,1,.3-.163,1,1,0,0,1,.746.268m6.655,5.151c.058.082.035.21.058.3.012.07.1.128.058.2l-.256.082c-.047,0-.023-.058-.047-.082a2.2,2.2,0,0,0-.1-.4c-.012-.082.07-.14.128-.186.058-.023.1.047.163.082m-.594-.524a1.476,1.476,0,0,1,.291.245c.012.047-.023.093-.047.128a.193.193,0,0,1-.14.058.178.178,0,0,1-.14-.082,1.1,1.1,0,0,1-.163-.268c.035-.058.117-.152.2-.082m-5.618-.093a1.05,1.05,0,0,1-.093.326c-.035.07-.14.047-.21.035s-.186-.035-.2-.14a.4.4,0,0,1,.082-.256,3.279,3.279,0,0,0,.338-.012c.047,0,.082.012.082.047" transform="translate(-79.611 -115.2)" fill="#e21b4d" fill-rule="evenodd"/>
    </g>
  </g>
</svg>
