<svg xmlns="http://www.w3.org/2000/svg" width="19.262" height="19.263" viewBox="0 0 19.262 19.263">
  <g id="Sauber_F1_Team_logo" transform="translate(3282.001 -2.198)">
    <path id="path13" d="M-3043.18,247.918c.281.2.555.405.846.587,1.561,1.007,3.163,1.952,4.685,3.018a4.338,4.338,0,0,1,1.626,1.911,3.364,3.364,0,0,1,.265,1.337,8.351,8.351,0,0,1-4.291-.169,8.544,8.544,0,0,1-3.131-1.783v-4.9m8.618-8.957a4.289,4.289,0,0,1,.885.388,8.252,8.252,0,0,1,2.827,2.483,8.352,8.352,0,0,1,1.546,4.662,8.143,8.143,0,0,1-1.3,4.638,8.444,8.444,0,0,1-2.165,2.28,2.958,2.958,0,0,1-.38.248,6.09,6.09,0,0,0-.229-1.565,5.311,5.311,0,0,0-.691-1.52,8.721,8.721,0,0,0-1.19-1.393,5.483,5.483,0,0,0-.8-.6c-.63-.408-1.282-.782-1.942-1.139a15.333,15.333,0,0,1-3.7-2.187,4.059,4.059,0,0,1-1.211-1.96,3.678,3.678,0,0,1-.116-1.376,3.2,3.2,0,0,1,.821-1.709,3.413,3.413,0,0,1,2.253-1.055,5.734,5.734,0,0,1,1.215.057,3.752,3.752,0,0,1,2.372,1.568,6.735,6.735,0,0,1,.745,2.383c.051.252.047.512.111.761.317,0,.633.009.949,0,.015-1.652,0-3.3.01-4.956m-8.618-1.94h19.262v19.262h-19.262v-2.742a9.693,9.693,0,0,0,1.8,1.127,8.912,8.912,0,0,0,7.275.129,8.82,8.82,0,0,0,5.034-5.751,8.777,8.777,0,0,0,.313-2.642,8.645,8.645,0,0,0-1.224-4.264,5.911,5.911,0,0,0-.6-.859,8.965,8.965,0,0,0-2.808-2.4,8.907,8.907,0,0,0-7.236-.531,8.8,8.8,0,0,0-2.553,1.449v-2.778" transform="translate(-238.821 -234.823)" fill="#51df51"/>
  </g>
</svg>
