<svg xmlns="http://www.w3.org/2000/svg" xmlns:xlink="http://www.w3.org/1999/xlink" width="13.932" height="19.404" viewBox="0 0 13.932 19.404">
  <defs>
    <clipPath id="clip-path">
      <rect id="Rectangle_27" data-name="Rectangle 27" width="13.932" height="19.404"/>
    </clipPath>
    <clipPath id="clip-path-19">
      <path id="Path_62" data-name="Path 62" d="M22.145,112.937c.116,0,.189-.044.189-.131s-.073-.1-.232-.16-.3-.131-.3-.319c0-.218.174-.319.392-.334l.029-.1c0-.015.029-.029.044-.029h.174c.029,0,.044.029.029.044l-.029.116a.769.769,0,0,1,.218.116h0a.044.044,0,0,1,0,.058l-.087.087a.044.044,0,0,1-.058,0,.418.418,0,0,0-.29-.1c-.087,0-.174.029-.174.1s.087.1.2.145c.189.058.348.145.348.319,0,.2-.16.334-.406.348l-.029.1c0,.015-.029.029-.044.029h-.174c-.029,0-.044-.029-.029-.058l.029-.116a.58.58,0,0,1-.261-.145h0a.044.044,0,0,1,0-.058l.087-.087a.044.044,0,0,1,.058,0,.382.382,0,0,0,.319.174h0m-.29-1.422a1.732,1.732,0,0,0-.435.029.435.435,0,0,0-.276.276,1.172,1.172,0,0,0-.044.435v.639a1.732,1.732,0,0,0,.029.435.435.435,0,0,0,.276.276,1.172,1.172,0,0,0,.435.044h.653a1.172,1.172,0,0,0,.435-.044.435.435,0,0,0,.276-.276,1.172,1.172,0,0,0,.044-.435v-.639a1.172,1.172,0,0,0-.044-.435.435.435,0,0,0-.276-.276,1.172,1.172,0,0,0-.435-.044h-.639Z" transform="translate(-21.1 -111.5)"/>
    </clipPath>
    <linearGradient id="linear-gradient" x1="-62.282" y1="34.107" x2="-62.262" y2="34.107" gradientUnits="objectBoundingBox">
      <stop offset="0" stop-color="#00b03c"/>
      <stop offset="0.569" stop-color="#02b03c"/>
      <stop offset="0.814" stop-color="#09b13c"/>
      <stop offset="0.997" stop-color="#16b33c"/>
      <stop offset="1" stop-color="#16b33c"/>
    </linearGradient>
  </defs>
  <g id="logo-f1-1" transform="translate(-2 -3.2)">
    <g id="Group_33" data-name="Group 33" transform="translate(2 3.2)">
      <g id="Group_15" data-name="Group 15" clip-path="url(#clip-path)">
        <path id="Path_44" data-name="Path 44" d="M24.595,115.183H23.158a.062.062,0,0,1-.058-.058v-1.567a.062.062,0,0,1,.058-.058h1.437a.062.062,0,0,1,.058.058v1.567c.015.044-.015.058-.058.058" transform="translate(-20.038 -97.492)" fill="#fff"/>
      </g>
      <g id="Group_16" data-name="Group 16" clip-path="url(#clip-path)">
        <path id="Path_45" data-name="Path 45" d="M24.921,31.12a2.239,2.239,0,0,0-2.264-2.22H19.9v4.484a.83.83,0,0,1,.116.1,1.048,1.048,0,0,1,.058,1.292,2.526,2.526,0,0,1-.174.2v.842a.3.3,0,0,0,.087-.058c.015-.015.044-.029.058-.044s.058-.044.2-.16A2.663,2.663,0,0,1,21.235,35a.979.979,0,0,1,.247-.044V30.163h.813a1,1,0,0,1,1.045.987,1.028,1.028,0,0,1-1.074.987h-.377v1.8l.45.7c.044-.044.087-.073.131-.116l.015-.015.015-.015a1.759,1.759,0,0,1,1.19-.421l.029-.029-.551-.784a2.188,2.188,0,0,0,1.756-2.133" transform="translate(-17.302 -25.17)" fill="#fff"/>
      </g>
      <g id="Group_17" data-name="Group 17" clip-path="url(#clip-path)">
        <path id="Path_46" data-name="Path 46" d="M60.969,28.9H58.4v4.267l.131-.087a2.847,2.847,0,0,1,.3-.174l.015-.015.015-.015a1.591,1.591,0,0,1,.653-.131,1.657,1.657,0,0,1,.479.073V30.192h1a.844.844,0,0,1,.8.842.805.805,0,0,1-.8.8h-.522v1.219l.131.087.015.015.044.029h.769a.948.948,0,0,1,.943.972.928.928,0,0,1-.131.493,8.979,8.979,0,0,1,.668.9v.015a1.949,1.949,0,0,1,.174.435A2.112,2.112,0,0,0,64,34.284a1.938,1.938,0,0,0-1.321-1.945,1.953,1.953,0,0,0,.131-2.815,2.368,2.368,0,0,0-1.843-.624" transform="translate(-50.215 -25.17)" fill="#fff"/>
      </g>
      <g id="Group_18" data-name="Group 18" clip-path="url(#clip-path)">
        <path id="Path_47" data-name="Path 47" d="M54.028,97.536a1.582,1.582,0,0,1,.087.16c.044.1.087.174.131.189.015,0,.044.015.058.015a.644.644,0,0,0,.334-.131c.058-.044.044-.073.015-.116-.015-.015-.015-.029-.029-.044a.708.708,0,0,1-.058-.16c-.029-.1-.058-.174-.16-.16a4.4,4.4,0,0,1-.45.029s-.058,0-.073.029.029.073.073.116l.073.073" transform="translate(-46.351 -83.633)" fill="#fff"/>
      </g>
      <g id="Group_19" data-name="Group 19" clip-path="url(#clip-path)">
        <path id="Path_48" data-name="Path 48" d="M2.426,102.4H2.412a.319.319,0,0,0-.189.2c-.015.29-.029.319-.1.406-.029.029-.044.087-.015.1a2.256,2.256,0,0,0,.334.116h0c.029-.015.044-.073.1-.276.029-.1.073-.232.1-.334,0,0,0-.015-.029-.058s-.131-.16-.189-.16" transform="translate(-2.078 -88.003)" fill="#fff"/>
      </g>
      <g id="Group_20" data-name="Group 20" clip-path="url(#clip-path)">
        <path id="Path_49" data-name="Path 49" d="M19.394,64.065l-.174-.087a1.338,1.338,0,0,1-.435-.508,1.137,1.137,0,0,0-.145-.218.684.684,0,0,0-.145-.145c-.029-.044-.073-.087-.073-.1a6.311,6.311,0,0,1-.435-1.785,1.539,1.539,0,0,0-.16-.479,11.18,11.18,0,0,0-.943-1.219l-.073-.073-.015-.015-1.147-.958a1.625,1.625,0,0,0-.464-.247.953.953,0,0,0-.363-.058,1.257,1.257,0,0,0-.464.087,2.525,2.525,0,0,0-.261.16,2.847,2.847,0,0,1-.464.247,3.348,3.348,0,0,1-.406.145,1.769,1.769,0,0,0-.74.363c-.058.058-.116.1-.16.145-.2.189-.218.2-.377.2a1.284,1.284,0,0,0-.914.319,2.336,2.336,0,0,1-.682.479,1.451,1.451,0,0,1-.377.073,1.713,1.713,0,0,0-.406.058,2.352,2.352,0,0,0-.813.479c-.087.058-.189.145-.232.174s-.058.044-.087.058a1.921,1.921,0,0,1-.958.348H7.45a.688.688,0,0,1-.61-.464.812.812,0,0,1,.232-.8c.1-.1.232-.2.348-.3a3.106,3.106,0,0,0,.493-.479.588.588,0,0,0-.029-.7,1.421,1.421,0,0,0-.653-.29H7.2c-.015,0-.044,0-.044-.015-.087-.015-.174-.029-.247-.044a2.707,2.707,0,0,1-.566-.319.445.445,0,0,0-.116.348.977.977,0,0,0,.537.7.051.051,0,0,1,.029.015.8.8,0,0,0,.247.044h.116a.706.706,0,0,1,.174.015.156.156,0,0,1,.116.131.11.11,0,0,1-.058.1c-.044.044-.087.073-.131.116a4.335,4.335,0,0,0-.653.61,1.08,1.08,0,0,0-.145,1.059,1.128,1.128,0,0,0,.914.682.828.828,0,0,0,.189.015,2.047,2.047,0,0,0,.6-.1h.015c.015,0,.029,0,.029.044,0,.087.015.174.015.276a1.818,1.818,0,0,0,.029.348,3.329,3.329,0,0,0,.131.406.347.347,0,0,0,.044.1.155.155,0,0,1-.044.16,1.527,1.527,0,0,1-.493.247,1.493,1.493,0,0,1-.247.015H7.566a.125.125,0,0,0-.087.044,1.306,1.306,0,0,0-.145.29,1.123,1.123,0,0,1-.1.232,1.094,1.094,0,0,1-.392.334c-.044.015-.073.044-.116.058h0a.9.9,0,0,1-.2.261.305.305,0,0,1-.218.073h0a.929.929,0,0,0-.189.479.628.628,0,0,1-.015.073V65.3h.015a1,1,0,0,1,.189.029,1.637,1.637,0,0,0,.261.044.35.35,0,0,0,.218-.058.626.626,0,0,0,.232-.247,1.472,1.472,0,0,1,.131-.189.165.165,0,0,1,.116-.044.424.424,0,0,1,.131.029.424.424,0,0,0,.131.029.807.807,0,0,0,.493-.189.442.442,0,0,0,.116-.116,1.838,1.838,0,0,1,.189-.16.673.673,0,0,1,.3-.058,2.113,2.113,0,0,1,.45.058,1.12,1.12,0,0,0,.218.029.6.6,0,0,0,.334-.087c.116-.058.232-.131.319-.174a1.346,1.346,0,0,1,.145-.073,1.051,1.051,0,0,0,.348-.435l.131-.3v-.015l-.189-.145-.015.015s-.131.2-.2.3a1.519,1.519,0,0,1-1.321.522H8.756A1.694,1.694,0,0,0,7.45,64.6a.044.044,0,0,1-.058,0c0-.015-.015-.029,0-.044l.029-.087a1.678,1.678,0,0,1,1.393-.566,2.311,2.311,0,0,0,.813-.189,1.279,1.279,0,0,0,.566-.711,1.973,1.973,0,0,0,.1-.508,3.977,3.977,0,0,1,.073-.406c0-.015.029-.029.044-.029h.015c.015,0,.058.015.058.044a1.689,1.689,0,0,0,.015.929.361.361,0,0,0,.363.174,1.55,1.55,0,0,0,.363-.044,2.04,2.04,0,0,1,.261-.029h.1a2.243,2.243,0,0,1,.45.058,1.7,1.7,0,0,0,.392.058H12.5c.044,0,.087.015.145.015a.384.384,0,0,0,.247-.073c.044-.029.029-.087.015-.145v-.015c0-.015,0-.029-.015-.029-.029-.087-.058-.2,0-.261a.051.051,0,0,0,.029-.015c.015,0,.029,0,.029.015s.015.044.015.073a1.013,1.013,0,0,0,.116.29,1.808,1.808,0,0,0,.6.464.8.8,0,0,1,.377.581c0,.116-.116.2-.2.261a1.07,1.07,0,0,1-.493.145.288.288,0,0,1-.16-.058.922.922,0,0,1-.2-.319,2.213,2.213,0,0,0-.16-.232.383.383,0,0,0-.334-.116c-.131.015-.261.044-.421.073a.1.1,0,0,0-.073.058.089.089,0,0,0,.015.1c.073.145.16.261.232.406l.029.058a.1.1,0,0,0,.087.044H12.5a.153.153,0,0,1,.145.058c.029.044.044.073.073.116a.709.709,0,0,0,.2.261.507.507,0,0,0,.319.116.617.617,0,0,0,.16-.029,6.5,6.5,0,0,0,1.045-.406h.189a.5.5,0,0,0,.319-.1,3.148,3.148,0,0,0,.276-.479.406.406,0,0,0,0-.406,2.557,2.557,0,0,1-.334-.668h0c-.029-.015-.044-.015-.073-.029a.613.613,0,0,0-.174-.044h-.015a.16.16,0,0,0-.145.073h0l.392.755a.3.3,0,0,1,.044.2,1.221,1.221,0,0,1-.261.421.045.045,0,0,1-.029.015s-.029,0-.015-.044a2.252,2.252,0,0,0,.073-.508,5.614,5.614,0,0,0-.348-.668v-.015a.58.58,0,0,1-.1-.261c0-.044.044-.073.073-.087l.174-.044c.131-.029.276-.058.334-.145a1.94,1.94,0,0,0,.3-.813c0-.015.015-.044.029-.044s.029,0,.029.029a1.2,1.2,0,0,1-.218.929.109.109,0,0,0-.015.073.054.054,0,0,0,.029.044.788.788,0,0,0,.537-.087,3.747,3.747,0,0,0,.421-.044c.044-.015.087-.015.131-.029.015.015.029.015.029.029a.866.866,0,0,0-.218.464.671.671,0,0,0-.1.1.607.607,0,0,0-.261.406.057.057,0,0,0,.058.058c.015,0,.044-.015.058-.015a.131.131,0,0,1,.073-.015q.022,0,.044.044l-.145.2c-.058.087-.029.174-.015.276.015.044.015.087.029.131a.274.274,0,0,0,.261.16,1.97,1.97,0,0,0,.522-.131c.029-.015.058-.015.087-.029a1.381,1.381,0,0,1,.711-.044.9.9,0,0,0,.566-.319.3.3,0,0,1,.218.131,1.217,1.217,0,0,0,.929.392H19c.044-.015.044-.029.058-.058A.074.074,0,0,0,19,64.428l-.218-.116a.849.849,0,0,1-.406-.406,2.615,2.615,0,0,0-.232-.493c-.015-.029-.029-.044-.044-.073l-.087-.131h0a1.047,1.047,0,0,1,.522.537.889.889,0,0,0,.711.435.32.32,0,0,0,.116-.015.062.062,0,0,0,.058-.058c.015,0,0-.029-.029-.044M15.272,60.64c0,.029-.015.044-.029.044a.028.028,0,0,1-.029-.029,2.7,2.7,0,0,0-.16-.6.81.81,0,0,0-.073-.116c-.058-.073-.1-.131-.044-.218a.1.1,0,0,1,.087-.044.087.087,0,0,1,.058.015.471.471,0,0,1,.174.218,1.3,1.3,0,0,1,.015.726M17.2,63.7a.427.427,0,0,1-.044.131.774.774,0,0,1-.276.058c-.073,0-.1-.015-.116-.044s.015-.073.015-.073a.581.581,0,0,1,.276-.261.27.27,0,0,1,.116,0c.058.029.029.174.029.189m.522-1.2a.229.229,0,0,1-.044.116c-.015.015-.029.058-.073.058s-.058-.073-.058-.073a.723.723,0,0,0-.044-.261c-.044-.087-.232-.334-.334-.319a.3.3,0,0,0-.16.116c-.058.087-.058.087-.087.1s-.044,0-.058-.044a.393.393,0,0,1,0-.189,1.3,1.3,0,0,1,.073-.189s.058-.131.073-.16a.172.172,0,0,1,.131-.087.165.165,0,0,1,.16.087c.087.1.073.1.087.131a.7.7,0,0,0,.116.145.856.856,0,0,1,.174.319.323.323,0,0,1,.044.247" transform="translate(-5.505 -50.132)" fill="#fff"/>
      </g>
      <g id="Group_21" data-name="Group 21" clip-path="url(#clip-path)">
        <path id="Path_50" data-name="Path 50" d="M5.9,99.224a.166.166,0,0,0,.1.044.206.206,0,0,0,.087-.029,1.34,1.34,0,0,0,.334-.392c.015-.044-.044-.087-.1-.145H6.308c-.029-.029-.087-.015-.116,0s-.044.029-.073.044a2.943,2.943,0,0,0-.261.189.292.292,0,0,0-.058.116.109.109,0,0,0,.015.073c.015.015.073.087.087.1" transform="translate(-5.249 -84.827)" fill="#fff"/>
      </g>
      <g id="Group_22" data-name="Group 22" clip-path="url(#clip-path)">
        <path id="Path_51" data-name="Path 51" d="M43.511,6.286l.6-2.786H43.4l-.6,2.786Z" transform="translate(-36.879 -3.456)" fill="#fff"/>
      </g>
      <g id="Group_23" data-name="Group 23" clip-path="url(#clip-path)">
        <path id="Path_52" data-name="Path 52" d="M65.74,6.372l.145-.421H66.8l.087.421h.668L66.974,3.6h-.61a.352.352,0,0,0-.3.2L65,6.372Zm.74-2.032L66.7,5.385h-.6Z" transform="translate(-55.857 -3.542)" fill="#fff"/>
      </g>
      <g id="Group_24" data-name="Group 24" clip-path="url(#clip-path)">
        <path id="Path_53" data-name="Path 53" d="M51.971,5.493a1.669,1.669,0,0,1-.74-.174l-.131.61a2.24,2.24,0,0,0,.8.145c.755,0,1.248-.377,1.248-.943,0-.726-1.016-.769-1-1.1,0-.1.1-.2.3-.232a1.263,1.263,0,0,1,.711.131l.116-.61a2.046,2.046,0,0,0-.668-.116c-.711,0-1.2.377-1.219.914,0,.406.363.624.624.755s.377.218.377.348c0,.189-.218.261-.421.276" transform="translate(-43.974 -3.2)" fill="#fff"/>
      </g>
      <g id="Group_25" data-name="Group 25" clip-path="url(#clip-path)">
        <path id="Path_54" data-name="Path 54" d="M22.385,4.151l.566,2.22h.755L24.867,3.6h-.755l-.74,1.887-.3-1.611a.328.328,0,0,0-.334-.276H21.515l-.015.087a3.718,3.718,0,0,1,.711.232c.1.044.131.1.174.232" transform="translate(-18.67 -3.542)" fill="#fff"/>
      </g>
      <g id="Group_26" data-name="Group 26" clip-path="url(#clip-path)">
        <path id="Path_55" data-name="Path 55" d="M42.929,115.832l-.087-.058c-.015-.015-.044,0-.058.015a.278.278,0,0,1-.261.131c-.2,0-.319-.16-.319-.377s.116-.377.319-.377a.31.31,0,0,1,.261.131c.015.015.029.015.058.015l.087-.058h0a.087.087,0,0,0,.015-.058.479.479,0,0,0-.421-.2.568.568,0,0,0,0,1.132.492.492,0,0,0,.421-.218h0a.064.064,0,0,0-.015-.073" transform="translate(-36.195 -98.765)" fill="#fff"/>
      </g>
      <g id="Group_27" data-name="Group 27" clip-path="url(#clip-path)">
        <path id="Path_56" data-name="Path 56" d="M49.463,117a.78.78,0,0,0-.3.073c-.015.015-.029.029-.015.058l.029.073h0c.015.015.029.029.058.015a.608.608,0,0,1,.218-.058c.073,0,.145.015.145.087s-.1.087-.218.1-.276.044-.276.247a.245.245,0,0,0,.276.247.292.292,0,0,0,.232-.1v.044a.046.046,0,0,0,.044.044h.1a.046.046,0,0,0,.044-.044v-.508c-.015-.2-.145-.276-.334-.276m.116.508a.167.167,0,0,1-.174.174c-.073,0-.131-.029-.131-.1s.058-.1.131-.116a.986.986,0,0,0,.174-.044Z" transform="translate(-42.264 -100.484)" fill="#fff"/>
      </g>
      <g id="Group_28" data-name="Group 28" clip-path="url(#clip-path)">
        <path id="Path_57" data-name="Path 57" d="M54.9,117.4c-.087-.015-.174-.029-.174-.087s.058-.073.131-.073a.347.347,0,0,1,.2.073.044.044,0,0,0,.058,0l.044-.058h0a.044.044,0,0,0,0-.058.456.456,0,0,0-.3-.1c-.174,0-.319.073-.319.247s.145.218.29.247.2.044.2.1-.058.087-.145.087a.439.439,0,0,1-.232-.073.044.044,0,0,0-.058,0l-.058.058h0a.044.044,0,0,0,0,.058.5.5,0,0,0,.319.1c.218,0,.348-.1.348-.276s-.116-.218-.3-.247" transform="translate(-46.902 -100.57)" fill="#fff"/>
      </g>
      <g id="Group_29" data-name="Group 29" clip-path="url(#clip-path)">
        <path id="Path_58" data-name="Path 58" d="M60.35,115.376a.31.31,0,0,0-.247.116v-.348a.046.046,0,0,0-.044-.044h-.116a.038.038,0,0,0-.044.044v1a.046.046,0,0,0,.044.044h.116a.038.038,0,0,0,.044-.044v-.406a.175.175,0,0,1,.189-.189c.116,0,.131.073.131.16v.45a.046.046,0,0,0,.044.044h.116a.038.038,0,0,0,.044-.044v-.493c-.015-.174-.1-.29-.276-.29" transform="translate(-51.497 -98.86)" fill="#fff"/>
      </g>
      <g id="Group_30" data-name="Group 30" clip-path="url(#clip-path)">
        <path id="Path_59" data-name="Path 59" d="M68.553,115.129c0-.015-.015-.029-.044-.029h-.189c-.015,0-.029.015-.044.029l-.377,1v.015a.038.038,0,0,0,.044.044h.131c.015,0,.029-.015.044-.029l.087-.247h.406l.087.247c0,.015.015.029.044.029h.16c.015-.015.029-.029.029-.044Zm-.29.624.16-.464.16.464Z" transform="translate(-58.336 -98.86)" fill="#fff"/>
      </g>
      <g id="Group_31" data-name="Group 31" clip-path="url(#clip-path)">
        <path id="Path_60" data-name="Path 60" d="M75.95,117a.31.31,0,0,0-.247.116v-.058h0a.046.046,0,0,0-.044-.044h-.116a.046.046,0,0,0-.044.044v.987a.038.038,0,0,0,.044.044h.116a.038.038,0,0,0,.044-.044v-.334a.273.273,0,0,0,.247.116.384.384,0,0,0,.363-.421A.371.371,0,0,0,75.95,117m-.044.668a.219.219,0,0,1-.2-.247c0-.145.073-.247.2-.247a.251.251,0,0,1,0,.493" transform="translate(-64.833 -100.484)" fill="#fff"/>
      </g>
      <g id="Group_32" data-name="Group 32" clip-path="url(#clip-path)">
        <path id="Path_61" data-name="Path 61" d="M82.25,117a.31.31,0,0,0-.247.116v-.058h0a.046.046,0,0,0-.044-.044h-.116a.046.046,0,0,0-.044.044v.987a.038.038,0,0,0,.044.044h.131a.046.046,0,0,0,.044-.044v-.334a.273.273,0,0,0,.247.116.384.384,0,0,0,.363-.421A.391.391,0,0,0,82.25,117m-.044.668a.219.219,0,0,1-.2-.247c0-.145.073-.247.2-.247a.219.219,0,0,1,.2.247c0,.131-.058.247-.2.247" transform="translate(-70.219 -100.484)" fill="#fff"/>
      </g>
    </g>
    <g id="Group_35" data-name="Group 35" transform="translate(4.772 18.917)">
      <g id="Group_34" data-name="Group 34" clip-path="url(#clip-path-19)">
        <rect id="Rectangle_45" data-name="Rectangle 45" width="2.133" height="2.133" transform="translate(0.015 0.015)" fill="url(#linear-gradient)"/>
      </g>
    </g>
    <path id="Path_63" data-name="Path 63" d="M20.9,133v.566h.087v-.232h.232v-.087h-.232v-.16h.232V133Z" transform="translate(-16.157 -110.962)" fill="#fff"/>
    <g id="Group_49" data-name="Group 49" transform="translate(2 3.2)">
      <g id="Group_36" data-name="Group 36" clip-path="url(#clip-path)">
        <path id="Path_64" data-name="Path 64" d="M24.59,133.481a.174.174,0,0,1-.116-.029c-.029-.014-.073-.029-.087-.058a.3.3,0,0,1-.058-.087.273.273,0,0,1-.029-.116.175.175,0,0,1,.029-.116.267.267,0,0,1,.145-.145.247.247,0,0,1,.232,0c.029.015.073.029.087.058a.3.3,0,0,1,.058.087.283.283,0,0,1,.015.116c0,.044-.015.073-.015.116a.267.267,0,0,1-.145.145.156.156,0,0,1-.116.029m0-.073a.109.109,0,0,0,.073-.015.2.2,0,0,0,.058-.044.317.317,0,0,0,.044-.073.268.268,0,0,0,0-.174.2.2,0,0,0-.044-.058c-.015-.015-.044-.029-.058-.044a.158.158,0,0,0-.073-.015A.184.184,0,0,0,24.5,133a.2.2,0,0,0-.058.044c-.015.014-.029.044-.044.058a.269.269,0,0,0,0,.174c.015.029.029.044.044.073s.044.029.058.044c.044,0,.058.015.087.015" transform="translate(-21.064 -114.077)" fill="#fff"/>
      </g>
      <g id="Group_37" data-name="Group 37" clip-path="url(#clip-path)">
        <path id="Path_65" data-name="Path 65" d="M29.9,133h.174a.177.177,0,0,1,.131.044.165.165,0,0,1,.044.116.21.21,0,0,1-.029.1.133.133,0,0,1-.087.058l.145.232H30.2l-.131-.218H30v.218h-.087V133Zm.174.276a.1.1,0,1,0,0-.2h-.087v.189h.087Z" transform="translate(-25.851 -114.162)" fill="#fff"/>
      </g>
      <g id="Group_38" data-name="Group 38" clip-path="url(#clip-path)">
        <path id="Path_66" data-name="Path 66" d="M34.651,133v.566h-.073v-.435l-.16.435h-.073l-.16-.435v.435H34.1V133h.116l.16.45.16-.45Z" transform="translate(-29.441 -114.162)" fill="#fff"/>
      </g>
      <g id="Group_39" data-name="Group 39" clip-path="url(#clip-path)">
        <path id="Path_67" data-name="Path 67" d="M39.918,133.566a.184.184,0,0,1-.087-.015c-.029-.015-.044-.029-.073-.044a.317.317,0,0,1-.044-.073.184.184,0,0,1-.015-.087V133h.087v.334a.21.21,0,0,0,.029.1.125.125,0,0,0,.087.044.088.088,0,0,0,.087-.044.122.122,0,0,0,.029-.1V133h.087v.334c0,.029,0,.073-.015.087a.174.174,0,0,1-.116.116c0,.029-.029.029-.058.029" transform="translate(-34.229 -114.162)" fill="#fff"/>
      </g>
      <g id="Group_40" data-name="Group 40" clip-path="url(#clip-path)">
        <path id="Path_68" data-name="Path 68" d="M44.4,133h.087v.479H44.7v.087h-.3Z" transform="translate(-38.247 -114.162)" fill="#fff"/>
      </g>
      <g id="Group_41" data-name="Group 41" clip-path="url(#clip-path)">
        <path id="Path_69" data-name="Path 69" d="M47.863,133.521h-.232l-.044.131H47.5l.2-.551h.087l.2.551h-.087Zm-.2-.073h.189l-.087-.261Z" transform="translate(-40.897 -114.248)" fill="#fff"/>
      </g>
      <g id="Group_42" data-name="Group 42" clip-path="url(#clip-path)">
        <path id="Path_70" data-name="Path 70" d="M54.79,133.481a.174.174,0,0,1-.116-.029c-.029-.014-.073-.029-.087-.058a.3.3,0,0,1-.058-.087.273.273,0,0,1-.029-.116.175.175,0,0,1,.029-.116.267.267,0,0,1,.145-.145.247.247,0,0,1,.232,0c.029.015.073.029.087.058a.3.3,0,0,1,.058.087.273.273,0,0,1,.029.116.342.342,0,0,1-.029.116.267.267,0,0,1-.145.145.156.156,0,0,1-.116.029m0-.073a.109.109,0,0,0,.073-.015.2.2,0,0,0,.058-.044.317.317,0,0,0,.044-.073.269.269,0,0,0,0-.174.2.2,0,0,0-.044-.058c-.015-.015-.044-.029-.058-.044a.158.158,0,0,0-.073-.015A.184.184,0,0,0,54.7,133a.2.2,0,0,0-.058.044c-.015.014-.029.044-.044.058a.269.269,0,0,0,0,.174c.015.029.029.044.044.073s.044.029.058.044.058.015.087.015" transform="translate(-46.881 -114.077)" fill="#fff"/>
      </g>
      <g id="Group_43" data-name="Group 43" clip-path="url(#clip-path)">
        <path id="Path_71" data-name="Path 71" d="M60.521,133v.566h-.087l-.247-.421v.421H60.1V133h.087l.247.421V133Z" transform="translate(-51.668 -114.162)" fill="#fff"/>
      </g>
      <g id="Group_44" data-name="Group 44" clip-path="url(#clip-path)">
        <path id="Path_72" data-name="Path 72" d="M64.8,133h.319v.087h-.232v.145h.232v.073h-.232v.174h.247v.087H64.8Z" transform="translate(-55.686 -114.162)" fill="#fff"/>
      </g>
      <g id="Group_45" data-name="Group 45" clip-path="url(#clip-path)">
        <path id="Path_73" data-name="Path 73" d="M70.845,133.087H70.7V133h.406v.087h-.174v.479h-.087Z" transform="translate(-60.73 -114.162)" fill="#fff"/>
      </g>
      <g id="Group_46" data-name="Group 46" clip-path="url(#clip-path)">
        <path id="Path_74" data-name="Path 74" d="M74.9,133h.334v.087h-.247v.145h.232v.073h-.232v.174h.261v.087H74.9Z" transform="translate(-64.32 -114.162)" fill="#fff"/>
      </g>
      <g id="Group_47" data-name="Group 47" clip-path="url(#clip-path)">
        <path id="Path_75" data-name="Path 75" d="M78.863,133.521h-.232l-.044.131H78.5l.2-.551h.087l.2.551h-.087Zm-.2-.073h.189l-.087-.261Z" transform="translate(-67.398 -114.248)" fill="#fff"/>
      </g>
      <g id="Group_48" data-name="Group 48" clip-path="url(#clip-path)">
        <path id="Path_76" data-name="Path 76" d="M83.951,133v.566h-.073v-.435l-.16.435h-.073l-.16-.435v.435H83.4V133h.116l.16.45.16-.45Z" transform="translate(-71.587 -114.162)" fill="#fff"/>
      </g>
    </g>
  </g>
</svg>
