<?xml version="1.0" encoding="UTF-8"?>
<svg id="Layer_1" data-name="Layer 1" xmlns="http://www.w3.org/2000/svg" version="1.1" viewBox="0 0 595.28 595.28">
  <defs>
    <style>
      .cls-1 {
        font-family: Arial-BoldMT, Arial;
        font-size: 338.81px;
        font-weight: 700;
      }

      .cls-1, .cls-2 {
        fill: #7fc242;
      }

      .cls-2 {
        stroke-width: 0px;
      }
    </style>
  </defs>
  <path class="cls-2" d="M297.64,60c32.11,0,63.22,6.27,92.48,18.65,28.29,11.97,53.71,29.11,75.55,50.95,21.84,21.84,38.99,47.26,50.95,75.55,12.38,29.26,18.65,60.37,18.65,92.48s-6.27,63.22-18.65,92.48c-11.97,28.29-29.11,53.71-50.95,75.55-21.84,21.84-47.26,38.99-75.55,50.95-29.26,12.38-60.37,18.65-92.48,18.65s-63.22-6.27-92.48-18.65c-28.29-11.97-53.71-29.11-75.55-50.95-21.84-21.84-38.99-47.26-50.95-75.55-12.38-29.26-18.65-60.37-18.65-92.48s6.27-63.22,18.65-92.48c11.97-28.29,29.11-53.71,50.95-75.55,21.84-21.84,47.26-38.99,75.55-50.95,29.26-12.38,60.37-18.65,92.48-18.65M297.64,0C133.26,0,0,133.26,0,297.64s133.26,297.64,297.64,297.64,297.64-133.26,297.64-297.64S462.02,0,297.64,0h0Z"/>
  <text class="cls-1" transform="translate(250.57 418.24)"><tspan x="0" y="0">I</tspan></text>
</svg>